<svg xmlns="http://www.w3.org/2000/svg" width="192" height="192" viewBox="0 0 192 192">
  <rect width="192" height="192" rx="38" fill="#0C1421"/>
  <rect width="192" height="192" rx="38" fill="url(#g)"/>
  <defs>
    <linearGradient id="g" x1="0" y1="0" x2="192" y2="192" gradientUnits="userSpaceOnUse">
      <stop offset="0%" stop-color="#1A2E48"/>
      <stop offset="100%" stop-color="#0C1421"/>
    </linearGradient>
  </defs>
  <!-- Sol / raios -->
  <circle cx="96" cy="80" r="22" fill="#F5A623"/>
  <g stroke="#F5A623" stroke-width="4" stroke-linecap="round">
    <line x1="96" y1="44" x2="96" y2="36"/>
    <line x1="96" y1="124" x2="96" y2="116"/>
    <line x1="60" y1="80" x2="52" y2="80"/>
    <line x1="140" y1="80" x2="132" y2="80"/>
    <line x1="71" y1="55" x2="65" y2="49"/>
    <line x1="127" y1="111" x2="121" y2="105"/>
    <line x1="121" y1="55" x2="127" y2="49"/>
    <line x1="65" y1="111" x2="71" y2="105"/>
  </g>
  <!-- Painel solar estilizado -->
  <rect x="44" y="118" width="104" height="30" rx="4" fill="#1E3050" stroke="#F5A62340" stroke-width="1"/>
  <line x1="79" y1="118" x2="79" y2="148" stroke="#F5A62330" stroke-width="1"/>
  <line x1="113" y1="118" x2="113" y2="148" stroke="#F5A62330" stroke-width="1"/>
  <line x1="44" y1="133" x2="148" y2="133" stroke="#F5A62330" stroke-width="1"/>
  <!-- Letras AT -->
  <text x="96" y="170" font-family="Arial" font-weight="900" font-size="14" fill="#F5A623" text-anchor="middle" letter-spacing="3">ATOMTECH</text>
</svg>
